{"title":"The.Florida.Project.2017.DVDScr.XVID.AC3.HQ.Hive-CM8","magnet":"magnet:?xt=urn:btih:2b43c2e24b0e8b84960cd0c902ceb30a1910282e&dn=The.Florida.Project.2017.DVDScr.XVID.AC3.HQ.Hive-CM8&tr=udp%3A%2F%2Ftracker.leechers-paradise.org%3A6969&tr=udp%3A%2F%2Fzer0day.ch%3A1337&tr=udp%3A%2F%2Fopen.demonii.com%3A1337&tr=udp%3A%2F%2Ftracker.coppersurfer.tk%3A6969&tr=udp%3A%2F%2Fexodus.desync.com%3A6969","uploader":"roflcopter2110","categoryP":"video","categoryS":"movies","size":"1671704576","seeders":"51","leechers":"51","description":"The.Florida.Project.2017.DVDScr.XVID.AC3.HQ.Hive-CM8\r\n <a href=\"\nhttps://i.imgur.com/4Zvf3va.jpg\" rel=\"nofollow\" target=\"_NEW\">\nhttps://i.imgur.com/4Zvf3va.jpg</a>\r\n\r\nThx Hive\r\n\r\nCM8 Doing It Right The First Time\r\n\r\nSource: a cool dude on the street\r\nthx\r\n\r\nNotes:\r\none more goodie\r\nDon&#xB4;t forget watching a scr is not like the real thing, you should still all go to the cinema and support the Producers, thx\r\nWe especially sharing this for the people who cant visit the cinema due to illness or because it is a limited release that doesnt make it to their country,\r\nso that they also can experience some award nominations.\r\n\r\nEncode:\r\nquality was nice, not much to do\r\nenjoy\r\n\r\nScreeners:\r\nWe are still missing suburbicon,downsizing,and phantom thread, anyone want to share for the collection?\r\nDon&apos;t post info public or on any blog its too risky, it has to be done safely and secure in private, and we have proven that we can do it.\r\nMsg us <a href=\"/cdn-cgi/l/email-protection\" class=\"__cf_email__\" data-cfemail=\"690a04510a1b0c1e29011c1a0104080005470a0604\">[email&#xA0;protected]</a> - we will respect your wishes\r\nif you want to share with us in private it will stay private\r\n\r\nVideo: 720x304 @bitrate 1700 2pass\r\nAudio: English Stereo\r\nSample: yes included\r\n\r\nGeneral\r\nComplete name: The.Florida.Project.2017.DVDScr.XVID.AC3.HQ.Hive-CM8.avi\r\nFormat: AVI\r\nFormat/Info: Audio Video Interleave\r\nFile size: 1.55 GiB\r\nDuration: 1h 51mn\r\nOverall bit rate: 1 992 Kbps\r\nWriting application: Nandub v1.0rc2\r\nWriting library: Nandub build 1853/release\r\n\r\nVideo\r\nID: 0\r\nFormat: MPEG-4 Visual\r\nFormat profile: Advanced <a href=\"/cdn-cgi/l/email-protection\" class=\"__cf_email__\" data-cfemail=\"c192a8acb1ada4818df4\">[email&#xA0;protected]</a>\r\nFormat settings, BVOP: 2\r\nFormat settings, QPel: Yes\r\nFormat settings, GMC: No warppoints\r\nFormat settings, Matrix: Default (H.263)\r\nMuxing mode: Packed bitstream\r\nCodec ID: XVID\r\nCodec ID/Hint: XviD\r\nDuration: 1h 51mn\r\nBit rate: 1 724 Kbps\r\nWidth: 720 pixels\r\nHeight: 304 pixels\r\nDisplay aspect ratio: 2.35:1\r\nFrame rate: 30.000 fps\r\nColor space: YUV\r\nChroma subsampling: 4:2:0\r\nBit depth: 8 bits\r\nScan type: Progressive\r\nCompression mode: Lossy\r\nBits/(Pixel*Frame): 0.263\r\nStream size: 1.34 GiB (87%)\r\nWriting library: XviD 1.2.1 (UTC 2008-12-04)\r\n\r\nAudio\r\nID: 1\r\nFormat: AC-3\r\nFormat/Info: Audio Coding 3\r\nMode extension: CM (complete main)\r\nFormat settings, Endianness: Big\r\nCodec ID: 2000\r\nDuration: 1h 51mn\r\nBit rate mode: Constant\r\nBit rate: 256 Kbps\r\nChannel(s): 2 channels\r\nChannel positions: Front: L R\r\nSampling rate: 48.0 KHz\r\nBit depth: 16 bits\r\nCompression mode: Lossy\r\nDelay relative to video: 28ms\r\nStream size: 204 MiB (13%)\r\nAlignment: Split accross interleaves\r\nInterleave, duration: 33 ms (1.00 video frame)\r\nInterleave, preload duration: 500 ms\r\n\r\nPlot\r\nSet over one summer, the film follows precocious six-year-old Moonee as she courts mischief and adventure with her ragtag playmates and bonds with her rebellious but caring mother, all while living in the shadows of Disney World.\r\n\r\nCOME FIND US WE DONT BITE\r\n\r\nScreens: <a href=\"\nhttps://i.imgur.com/qbjs98g.png\" rel=\"nofollow\" target=\"_NEW\">\nhttps://i.imgur.com/qbjs98g.png</a> <a href=\"\nhttps://i.imgur.com/yajZmHX.png\" rel=\"nofollow\" target=\"_NEW\">\nhttps://i.imgur.com/yajZmHX.png</a> <a href=\"\nhttps://i.imgur.com/gxbOW6H.png\" rel=\"nofollow\" target=\"_NEW\">\nhttps://i.imgur.com/gxbOW6H.png</a> <a href=\"\nhttps://i.imgur.com/updvKFP.png\" rel=\"nofollow\" target=\"_NEW\">\nhttps://i.imgur.com/updvKFP.png</a>","last_updated":"2017-12-31T12:03:18.857Z","parsed":{"xt":"urn:btih:2b43c2e24b0e8b84960cd0c902ceb30a1910282e","dn":"The.Florida.Project.2017.DVDScr.XVID.AC3.HQ.Hive-CM8","tr":["udp://exodus.desync.com:6969","udp://open.demonii.com:1337","udp://tracker.coppersurfer.tk:6969","udp://tracker.leechers-paradise.org:6969","udp://zer0day.ch:1337"],"infoHash":"2b43c2e24b0e8b84960cd0c902ceb30a1910282e","infoHashBuffer":{"type":"Buffer","data":[43,67,194,226,75,14,139,132,150,12,208,201,2,206,179,10,25,16,40,46]},"name":"The.Florida.Project.2017.DVDScr.XVID.AC3.HQ.Hive-CM8","announce":["udp://exodus.desync.com:6969","udp://open.demonii.com:1337","udp://tracker.coppersurfer.tk:6969","udp://tracker.leechers-paradise.org:6969","udp://zer0day.ch:1337"],"urlList":[]}}